<svg width="309" height="254"><g id="main_text" rel="mainfill" name="main_text" feature="main_text" xmlns:name="mainText_mainfill" groupname="main_text" fill="#ffffff" transform="translate(0.6169599175395776, 104.2783012373458) scale(6.169596785107714)"><path d="M7.04 14 q0.12 0.56 0.12 1.12 t-0.12 1.1 l-2.38 -0.04 l0 4.6 q0 0.94 0.88 0.94 l1.12 0 q0.26 0.72 0.26 1.32 t-0.08 0.86 q-1.48 0.2 -2.72 0.2 q-2.52 0 -2.52 -2.78 l0 -5.12 l-1.56 0.02 q-0.14 -0.5 -0.14 -1.09 t0.14 -1.13 l1.56 0.04 l0 -1.16 q0 -1.02 0.39 -1.45 t1.31 -0.43 l1.22 0 l0.14 0.14 l0 2.9 z M12.3 16.32 l0 7.68 q-0.34 0.06 -0.74 0.09 t-0.82 0.03 t-0.83 -0.03 t-0.75 -0.09 l0 -6.62 q0 -1.16 -0.94 -1.16 l-0.3 0 q-0.12 -0.38 -0.12 -1.06 q0 -0.66 0.12 -1.12 q0.52 -0.04 0.96 -0.07 t0.8 -0.03 l0.44 0 q1.02 0 1.6 0.64 t0.58 1.74 z M8.8 10 q0.58 -0.32 1.5 -0.32 q0.94 0 1.46 0.32 q0.24 0.54 0.24 1.16 t-0.24 1.16 q-0.58 0.3 -1.52 0.3 t-1.44 -0.3 q-0.24 -0.54 -0.24 -1.16 t0.24 -1.16 z M14.4 21.32 l2.36 -3.16 q0.66 -0.88 1.62 -1.88 l-0.06 -0.1 q-1.48 0.16 -2.48 0.16 l-1.54 0 q-0.12 -0.48 -0.12 -1.02 t0.18 -1.3 l6.96 0 q0.42 1.22 0.42 1.72 t-0.3 0.92 l-2.46 3.26 q-0.94 1.24 -1.5 1.8 l0.06 0.1 q0.88 -0.12 1.58 -0.12 l0.7 0 q1.18 0 1.86 -0.34 q0.32 0.78 0.32 1.26 q0 1.38 -1.66 1.38 l-6.04 0 q-0.34 -0.96 -0.34 -1.55 t0.44 -1.13 z M27.26 16.32 l0 7.68 q-0.34 0.06 -0.74 0.09 t-0.82 0.03 t-0.83 -0.03 t-0.75 -0.09 l0 -6.62 q0 -1.16 -0.94 -1.16 l-0.3 0 q-0.12 -0.38 -0.12 -1.06 q0 -0.66 0.12 -1.12 q0.52 -0.04 0.96 -0.07 t0.8 -0.03 l0.44 0 q1.02 0 1.6 0.64 t0.58 1.74 z M23.76 10 q0.58 -0.32 1.5 -0.32 q0.94 0 1.46 0.32 q0.24 0.54 0.24 1.16 t-0.24 1.16 q-0.58 0.3 -1.52 0.3 t-1.44 -0.3 q-0.24 -0.54 -0.24 -1.16 t0.24 -1.16 z M29.720000000000002 21.42 q0.34 -0.18 0.74 -0.27 t0.82 -0.09 q0.92 0 1.58 0.36 q0.24 0.52 0.24 1.22 q0 0.34 -0.06 0.65 t-0.18 0.55 q-0.56 0.38 -1.58 0.38 q-1 0 -1.56 -0.38 q-0.12 -0.24 -0.18 -0.55 t-0.06 -0.65 q0 -0.7 0.24 -1.22 z M38.96 16.32 l0 7.68 q-0.34 0.06 -0.74 0.09 t-0.82 0.03 t-0.83 -0.03 t-0.75 -0.09 l0 -6.62 q0 -1.16 -0.94 -1.16 l-0.3 0 q-0.12 -0.38 -0.12 -1.06 q0 -0.66 0.12 -1.12 q0.52 -0.04 0.96 -0.07 t0.8 -0.03 l0.44 0 q1.02 0 1.6 0.64 t0.58 1.74 z M35.46 10 q0.58 -0.32 1.5 -0.32 q0.94 0 1.46 0.32 q0.24 0.54 0.24 1.16 t-0.24 1.16 q-0.58 0.3 -1.52 0.3 t-1.44 -0.3 q-0.24 -0.54 -0.24 -1.16 t0.24 -1.16 z M48.52 14.9 q1.44 1.44 1.44 4.12 q0 1.2 -0.31 2.18 t-0.9 1.67 t-1.45 1.06 t-1.98 0.37 t-1.97 -0.38 t-1.44 -1.07 t-0.89 -1.67 t-0.3 -2.16 q0 -1.2 0.3 -2.17 t0.88 -1.67 t1.44 -1.08 t1.98 -0.38 q1.98 0 3.2 1.18 z M45.34 16.06 q-0.44 0 -0.71 0.21 t-0.43 0.57 t-0.22 0.83 t-0.06 1.01 q0 0.84 0.05 1.45 t0.2 1.02 t0.42 0.61 t0.71 0.2 q0.88 0 1.16 -0.77 t0.28 -2.19 q0 -1.44 -0.28 -2.19 t-1.12 -0.75 z"></path></g><g id="SvgjsG1216" rel="mainfill" name="symbol" feature="symbol" xmlns:name="symbol_mainfill" fill="#cefdf3" transform="translate(93.00000000000001, 15.000000000000002) scale(2.206071428571429)"><g stroke="none" stroke-width="1" fill="none" fill-rule="evenodd"><g fill-rule="nonzero" fill="#cefdf3"><path d="M42,28 C42,20.2680135 35.7319865,14 28,14 C20.2680135,14 14,20.2680135 14,28 C14,35.7319865 20.2680135,42 28,42 C35.7283952,41.9913367 41.9913367,35.7283952 42,28 L42,28 Z M18,28 C18,28.5522847 17.5522847,29 17,29 C16.4477153,29 16,28.5522847 16,28 C16.0072308,21.3755804 21.3755804,16.0072308 28,16 C28.5522847,16 29,16.4477153 29,17 C29,17.5522847 28.5522847,18 28,18 C22.4798412,18.0064858 18.0064858,22.4798412 18,28 L18,28 Z M28,36 C23.581722,36 20,32.418278 20,28 C20,23.581722 23.581722,20 28,20 C32.418278,20 36,23.581722 36,28 C35.9949466,32.4161831 32.4161831,35.9949466 28,36 L28,36 Z"></path><circle cx="28" cy="28" r="6"></circle><path d="M45.58594,38 L40.47009,38 C39.1637946,39.6280134 37.5534599,40.9865473 35.7287,42 L45.58594,42 L44.29294,40.707 C44.1053575,40.5195193 43.9999661,40.2651798 43.9999661,39.99997 C43.9999661,39.7347602 44.1053575,39.4804207 44.29294,39.29294 L45.58594,38 Z"></path><path d="M28,-1.11022302e-15 C12.536027,-6.21724894e-15 -5.10702591e-15,12.536027 -7.10542736e-15,28 C-9.1038288e-15,43.463973 12.536027,56 28,56 C43.463973,56 56,43.463973 56,28 C55.9826624,12.5432142 43.4567858,0.0173375993 28,-1.11022302e-15 Z M48.92383,43.38281 C48.7692482,43.7566082 48.4045004,44.000288 48,44 L28,44 C20.7279004,44.0230017 14.3489346,39.1539384 12.4533096,32.1332143 C10.5576846,25.1124901 13.6190907,17.6944868 19.9145086,14.0542017 C26.2099265,10.4139167 34.1662186,11.4610068 39.3054278,16.6061492 C44.4446371,21.7512916 45.4825464,29.7087865 41.835,36 L48,36 C48.4044386,35.9999985 48.7690518,36.2436325 48.9238121,36.6172899 C49.0785723,36.9909473 48.9930002,37.4210377 48.707,37.707 L46.41406,40 L48.70706,42.293 C48.9933423,42.5788542 49.0789331,43.0091615 48.92383,43.38281 Z"></path></g></g></g></svg>